# xmcd
#
# Track frame offsets: 
#        150
#        17496
#        34390
#        53299
#        71689
#        89965
#        110960
#        128225
#        146498
#        172760
#        196643
#        218321
#        232607
#
# Disc length: 3309 seconds
#
# Revision: 0
# Processed by: cddbd v1.5.2PL0 Copyright (c) Steve Scherf et al.
# Submitted via: ExactAudioCopyFreeDBPlugin 1.0
#
DISCID=a60ceb0d
DTITLE=Adele - 21
DYEAR=2011
DGENRE=Pop
TTITLE0=Rolling In The Deep
TTITLE1=Rumour Has It
TTITLE2=Turning Tables 
TTITLE3=Don't You Remember
TTITLE4=Set Fire To The Rain
TTITLE5=He Won't Go
TTITLE6=Take It All
TTITLE7=I'll Be Waiting
TTITLE8=One and Only
TTITLE9=Lovesong
TTITLE10=Someone Like You
TTITLE11=If It Hadn't Been For Love
TTITLE12=Hiding My Heart
EXTD=
EXTT0=
EXTT1=
EXTT2=
EXTT3=
EXTT4=
EXTT5=
EXTT6=
EXTT7=
EXTT8=
EXTT9=
EXTT10=
EXTT11=
EXTT12=
PLAYORDER=
